<?xml version="1.0" standalone="no"?>
<!DOCTYPE svg PUBLIC "-//W3C//DTD SVG 20010904//EN"
 "http://www.w3.org/TR/2001/REC-SVG-20010904/DTD/svg10.dtd">
<svg version="1.0" xmlns="http://www.w3.org/2000/svg"
 width="512.000000pt" height="512.000000pt" viewBox="0 0 512.000000 512.000000"
 preserveAspectRatio="xMidYMid meet">

<g transform="translate(0.000000,512.000000) scale(0.100000,-0.100000)"
fill="#000000" stroke="none">
<path d="M1833 4360 c-116 -23 -234 -117 -287 -229 l-31 -66 -3 -973 c-3
-1084 -7 -1011 67 -1032 24 -8 346 -10 1004 -8 l969 3 29 33 29 33 -2 972 -3
972 -31 66 c-55 115 -165 201 -292 228 -63 13 -1382 14 -1449 1z"/>
<path d="M970 2823 c-8 -3 -27 -17 -42 -31 l-28 -26 0 -599 c0 -391 4 -605 10
-618 21 -39 62 -49 192 -49 139 0 164 8 190 60 17 32 18 81 17 600 0 410 -3
575 -12 600 -19 56 -59 70 -197 69 -63 0 -122 -3 -130 -6z"/>
<path d="M3872 2815 c-62 -28 -62 -23 -62 -652 0 -521 1 -571 18 -603 26 -52
51 -60 190 -60 130 0 171 10 192 49 6 13 10 227 10 618 l0 599 -31 30 c-30 29
-32 29 -157 32 -95 1 -135 -2 -160 -13z"/>
<path d="M1558 1834 c-42 -22 -48 -43 -48 -163 0 -102 2 -112 24 -138 l24 -28
992 -3 992 -2 34 34 34 34 0 101 c0 111 -10 146 -51 167 -43 22 -1961 20
-2001 -2z"/>
<path d="M924 1256 l-35 -35 3 -205 3 -206 28 -27 27 -28 1578 -3 c867 -1
1592 0 1611 3 18 4 44 18 57 32 24 26 24 28 24 234 0 205 0 208 -24 236 l-24
28 -1607 3 -1607 2 -34 -34z"/>
</g>
</svg>
